<?xml version="1.0" encoding="utf-8"?>
<!-- Generator: Adobe Illustrator 24.2.3, SVG Export Plug-In . SVG Version: 6.00 Build 0)  -->
<svg version="1.1" xmlns="http://www.w3.org/2000/svg" xmlns:xlink="http://www.w3.org/1999/xlink" x="0px" y="0px"
	 viewBox="0 0 500 500" style="enable-background:new 0 0 500 500;" xml:space="preserve">
<style type="text/css">
	.st0{fill:#FFFFFF;}
	.st1{opacity:0.51;}
	.st2{fill:none;stroke:#E5E5E5;stroke-linecap:round;stroke-miterlimit:10;}
	.st3{fill:#93C257;}
	.st4{fill:#E5E5E5;}
	.st5{fill:#4173CE;}
	.st6{fill:#6355AA;}
	.st7{fill:#BA7253;}
	.st8{fill:none;stroke:#263238;stroke-width:6;stroke-miterlimit:10;}
	.st9{fill:#D14E34;}
	.st10{opacity:0.5;fill:#FFFFFF;}
	.st11{opacity:0.2;}
	.st12{fill:none;stroke:#263238;stroke-width:1.1031;stroke-linecap:round;stroke-linejoin:round;stroke-miterlimit:10;}
	.st13{fill:#263238;}
	.st14{fill:#FFFFFF;stroke:#263238;stroke-width:1.1031;stroke-linecap:round;stroke-linejoin:round;stroke-miterlimit:10;}
	.st15{fill:none;stroke:#FFFFFF;stroke-width:1.1031;stroke-linecap:round;stroke-linejoin:round;stroke-miterlimit:10;}
	
		.st16{opacity:0.46;fill:none;stroke:#FFFFFF;stroke-width:2.864;stroke-linecap:round;stroke-linejoin:round;stroke-miterlimit:10;}
	.st17{fill:#9E3A2A;stroke:#263238;stroke-miterlimit:10;}
	.st18{fill:#D14E34;stroke:#263238;stroke-miterlimit:10;}
	.st19{fill:#263238;stroke:#263238;stroke-miterlimit:10;}
	.st20{fill:#E27971;stroke:#263238;stroke-miterlimit:10;}
	.st21{fill:#DE5640;stroke:#263238;stroke-miterlimit:10;}
	.st22{fill:none;stroke:#263238;stroke-linecap:round;stroke-linejoin:round;stroke-miterlimit:10;}
	.st23{fill:#BA4735;stroke:#2F2F2F;stroke-miterlimit:10;}
	.st24{fill:#D14E34;stroke:#2F2F2F;stroke-miterlimit:10;}
	.st25{opacity:0.54;}
	.st26{fill:#D8D7D6;}
	.st27{fill-rule:evenodd;clip-rule:evenodd;fill:#263238;}
	.st28{fill-rule:evenodd;clip-rule:evenodd;fill:#B94543;}
	.st29{fill-rule:evenodd;clip-rule:evenodd;fill:#FFFFFF;}
</style>
<g id="Capa_8">
	<circle class="st0" cx="249.6" cy="250" r="234.42"/>
	<g class="st1">
		<path class="st2" d="M33.04,163.63c-0.55,46.1-0.7,92.21-0.45,138.32c0.07,13.17,0.18,26.35,0.31,39.52"/>
		<line class="st2" x1="65.17" y1="151.97" x2="65.17" y2="224.89"/>
		<path class="st3" d="M56,118.18c-2.17,3.34-4.53,6.57-6.82,9.84h59.92v-9.84H56z"/>
		<rect x="113.04" y="118.18" class="st4" width="150.49" height="9.84"/>
		<rect x="65.17" y="132.61" class="st5" width="76.07" height="9.84"/>
		<rect x="145.17" y="132.61" class="st4" width="57.38" height="9.84"/>
		<rect x="206.15" y="132.61" class="st3" width="57.38" height="9.84"/>
		<rect x="65.17" y="147.03" class="st5" width="76.07" height="9.84"/>
		<rect x="65.01" y="219.98" class="st5" width="21.75" height="9.84"/>
		<rect x="145.17" y="147.03" class="st4" width="76.07" height="9.84"/>
		<rect x="94.68" y="161.46" class="st3" width="76.07" height="9.84"/>
		<rect x="174.68" y="161.46" class="st6" width="106.23" height="9.84"/>
		<rect x="94.68" y="175.88" class="st3" width="76.07" height="9.84"/>
		<rect x="174.68" y="175.88" class="st6" width="90.49" height="9.84"/>
		<rect x="94.68" y="190.31" class="st3" width="76.07" height="9.84"/>
		<rect x="174.68" y="190.31" class="st7" width="76.07" height="9.84"/>
		<rect x="94.68" y="204.74" class="st3" width="53.85" height="9.84"/>
		<rect x="174.68" y="204.74" class="st6" width="76.07" height="9.84"/>
		<g>
			<rect x="33.52" y="241.94" class="st3" width="76.07" height="9.84"/>
			<rect x="113.52" y="241.94" class="st4" width="150.49" height="9.84"/>
			<rect x="65.65" y="256.36" class="st5" width="76.07" height="9.84"/>
			<rect x="145.65" y="256.36" class="st4" width="57.38" height="9.84"/>
			<rect x="206.63" y="256.36" class="st3" width="57.38" height="9.84"/>
			<rect x="65.65" y="270.79" class="st5" width="76.07" height="9.84"/>
			<rect x="145.65" y="270.79" class="st4" width="76.07" height="9.84"/>
			<rect x="95.16" y="285.22" class="st3" width="76.07" height="9.84"/>
			<rect x="174.68" y="285.22" class="st6" width="106.23" height="9.84"/>
			<rect x="94.68" y="299.64" class="st3" width="76.07" height="9.84"/>
			<rect x="174.68" y="299.64" class="st6" width="90.49" height="9.84"/>
			<rect x="94.68" y="314.07" class="st3" width="76.07" height="9.84"/>
			<rect x="174.68" y="314.07" class="st7" width="76.07" height="9.84"/>
			<rect x="94.68" y="328.5" class="st3" width="53.85" height="9.84"/>
			<rect x="174.68" y="328.5" class="st6" width="76.07" height="9.84"/>
		</g>
		<g>
			<path class="st3" d="M35.74,349.36c2.5,2.86,5.08,5.73,6.98,9.03c0.15,0.27,0.29,0.54,0.4,0.8h65.98v-9.84H35.74z"/>
			<rect x="113.04" y="349.36" class="st0" width="150.49" height="9.84"/>
			<rect x="65.17" y="363.79" class="st5" width="76.07" height="9.84"/>
			<rect x="145.17" y="363.79" class="st0" width="57.38" height="9.84"/>
			<rect x="206.15" y="363.79" class="st3" width="57.38" height="9.84"/>
			<rect x="65.17" y="378.21" class="st5" width="76.07" height="9.84"/>
			<rect x="145.17" y="378.21" class="st0" width="76.07" height="9.84"/>
			<rect x="94.68" y="392.64" class="st3" width="76.07" height="9.84"/>
			<rect x="174.68" y="392.64" class="st6" width="106.23" height="9.84"/>
		</g>
	</g>
</g>
<g id="Graphics">
	<circle class="st8" cx="250" cy="250" r="234.42"/>
</g>
<g id="Character">
	<g>
		<path class="st9" d="M343.75,249.81l-64.66-24.61l-0.8-0.31c0,0,0.24-1.72,0.42-4.22c0.4-5.16,0.61-13.56-1.81-16.41
			c-3.6-4.22-13.82-0.68-23.78-5.25c-9.96-4.57-28.4,3.6-28.4,3.6s-13.31-2.45-19.17,7.16c-2.99,7.75-1.95,19.29-1.95,19.29
			s-0.42,0.16-1.22,0.45c-7.7,2.87-49.62,18.65-58.49,24.99c-9.8,6.95-20.63,78.18-24.11,99.09c-3.49,20.93-9.68,39.77-6.52,46.98
			c3.13,7.18,48.18,41.87,74.08,50.82c25.9,8.97,117.81,6.33,117.81,6.33s1.51-0.4,4.17-1.25c15.54-4.99,70.69-25.55,99.94-74.04
			C409.24,382.43,380.91,289.51,343.75,249.81z M169.05,369.62c-4.76,3.37-2.21,16.44-2.21,16.44l-8.1-7.14l20.32-49.97l8.67,38.36
			C187.72,367.32,173.8,366.28,169.05,369.62z M331.63,401.37c-2.24,1.15,6.43-22.87,2.31-28.31c-4.12-5.46-16.46-4.92-16.46-4.92
			l1.06-6.57c0.14-0.73,7.32-37.56,7.32-37.56l2.43-2.9c0,0,25.15,43.12,29.65,58.31C357.93,379.42,330.52,401.37,331.63,401.37z"/>
		<path class="st0" d="M221.66,93.95l-33.37,35.43c0,0-4.6,4.07-2.77,14.35c1.83,10.28,6.09,19.11,9.31,19.79
			c3.22,0.69,7.73,0.69,7.73,0.69s7.15,15.5,12.22,21.59c0,0,1.77,23.92,0.83,30.57c0,0,11.99,10.47,23.28,11.81
			c11.29,1.33,28.74-15.97,28.74-15.97l4.33-21.18c0,0,10.24-15.54,10.94-19.68c0.7-4.14,5.38-3.08,7.68-5.12
			c2.3-2.04,7.62-11.17,8.5-19.79c0.88-8.63,0.94-18.53-9.08-15.62c-8.68-2.33-3.25-20.69-3.25-20.69l-15.25-13.46L221.66,93.95z"/>
		<path class="st10" d="M279.09,225.2c-0.52,1.37-1.08,2.66-1.72,3.86c-5.51,10.38-29.51,30.17-29.51,30.17l-7.25-22.3l-3.98,22.3
			c-8.01-3.49-32.43-24.66-32.43-24.66s-0.82-1.98-1.84-5.06c0.8-0.28,1.22-0.45,1.22-0.45s-1.04-11.54,1.95-19.29
			c5.86-9.61,19.17-7.16,19.17-7.16s18.44-8.17,28.4-3.6c9.96,4.57,20.18,1.04,23.78,5.25c3.6,4.22,1.39,20.63,1.39,20.63
			L279.09,225.2z"/>
		<path class="st11" d="M343.75,249.81l-64.66-24.61l-0.8-0.31c0,0,0.24-1.72,0.42-4.22l-1.34,8.38l-9.56,13
			c0,0,16.17,5.83,29.84,13.15c9.5,5.09,14.96,15.43,13.71,26.14l-11.92,101.93l-4.87,57.88l14.74,15.31
			c15.54-4.99,70.69-25.55,99.94-74.04C409.24,382.43,380.91,289.51,343.75,249.81z M331.63,401.37
			c-2.24,1.15,6.43-22.87,2.31-28.31c-4.12-5.46-16.46-4.92-16.46-4.92l1.06-6.57c0.14-0.73,7.32-37.56,7.32-37.56l2.43-2.9
			c0,0,25.15,43.12,29.65,58.31C357.93,379.42,330.52,401.37,331.63,401.37z"/>
		<path class="st11" d="M192.1,373.06l-10.06-33.6c0,0-18.03-61.49-30.39-76.65l3.25,43.24c0,0-10.61,51.66-20.43,67.01
			c-9.82,15.33-11.94,19.17,0,19.17c11.96,0,40.97,23.15,40.97,23.15l-2.24-19.31L192.1,373.06z M166.83,386.06l-8.1-7.14
			l20.32-49.97l8.67,38.36c0,0-13.92-1.04-18.67,2.31C164.29,372.99,166.83,386.06,166.83,386.06z"/>
		<path class="st12" d="M214.76,185.81c0,0,1.86,18.12,0,26.4"/>
		<path class="st12" d="M269.46,209.78c0,0-0.11-8.83,2.02-17.31"/>
		<path class="st12" d="M274.32,107.46c0,0,10.96,13.77,10.4,24.17c-0.56,10.4-1.41,22.77-1.12,34.86
			c0.28,12.09-19.4,37.39-29.51,39.63c-10.12,2.25-18.83,2.81-25.3-3.65c-6.46-6.47-12.93-15.46-21.36-26.99
			c-8.43-11.52-6.46-36.82-6.46-36.82"/>
		<path class="st13" d="M215.59,195.77c0,0,6.51,17.94,21.04,23.03c14.54,5.09,33.84-21.32,33.84-21.32l1.01-5.01
			c0,0-14.64,17.19-28.73,15.2c-14.21-2-27.98-21.86-27.98-21.86L215.59,195.77z"/>
		<path class="st12" d="M202.55,163.53c0,0-8.67,3.06-10.97-3.69c-2.3-6.75-10.2-24.52-3.29-30.45c6.91-5.92,12.47,7.82,12.47,7.82"
			/>
		<path class="st12" d="M283.58,165.07c0,0,8.05,1.62,10.36-5.13c2.3-6.75,10.2-24.52,3.29-30.45c-6.91-5.92-12.47,7.82-12.47,7.82"
			/>
		<path class="st13" d="M200.78,154.53c2.4-0.11,6.34-2.45,7.6-4.49c1.26-2.04,1.8-4.45,2.21-6.81c0.79-4.53,1.19-9.13,1.2-13.74
			c0.01-1.8-0.04-3.63,0.48-5.35c0.55-1.79,1.68-3.34,2.9-4.76c3.02-3.54,6.66-6.54,9.54-10.2c2.87-3.67,4.99-8.31,4.21-12.9
			c0,0,21.02,22.74,47.96,12.41c12.32-4.73,8.59-18.85-1.55-19.09c-6.02-0.14,0,0-5.71-1.42c-7.54-1.87-1.81-9.83-9.66-13.11
			c-12.28-5.13-6.35-4.52-18.93-5.87c-10.75-1.16-19.23,2.03-24.83,12.72c0,0-19.08-0.76-23.51,12.05
			c-4.67,13.51-3.69,34.79-3.69,34.79s6.42-7.37,11.97,9.92L200.78,154.53z"/>
		<path class="st13" d="M275.86,102.51c0,0-5,26.04,8.04,38.65c0,0,2.75-7.26,5.45-9.84c0.47-0.45,0.62-1.09,0.88-1.69
			c0.84-1.98,2.15-14.6-2.45-27.08C281.6,85.75,275.86,102.51,275.86,102.51z"/>
		<path class="st12" d="M210.59,209.78c0,0,11.93,13.14,28.19,19.29c0,0,21.67-6.28,32.7-21.39"/>
		
			<ellipse transform="matrix(0.909 -0.4169 0.4169 0.909 -43.9622 107.7419)" class="st12" cx="224.72" cy="154.53" rx="19.18" ry="19.18"/>
		
			<ellipse transform="matrix(0.9925 -0.1219 0.1219 0.9925 -16.8442 33.7729)" class="st12" cx="267.56" cy="154.53" rx="19.18" ry="19.18"/>
		<path class="st12" d="M214.76,202.63c0,0-5.83,1.18-9.22,7.15c-3.39,5.97-1.35,24.78-1.35,24.78s17.52,17.34,32.44,24.65
			l4.4-24.75l6.83,24.75c0,0,23.1-16.34,29.5-30.15c0,0,2.09-16.1,0-21.39c-2.09-5.29-6.9-5.04-6.9-5.04"/>
		<path class="st12" d="M187.31,368.15c0,0-6.84-45.89-15.96-64.61"/>
		<path class="st12" d="M151.65,262.8c0,0,8.66,12.14,14.17,23.72"/>
		<path class="st12" d="M331.63,297.06c2.41-9.14,4.97-17.16,7.53-22.4"/>
		<path class="st12" d="M317.47,368.15c0,0,4.94-31.46,10.82-57.38"/>
		<path class="st12" d="M325.85,324c4.71-6.28,11.53-10.95,19.09-13.05"/>
		<path class="st12" d="M278.3,224.89c0,0,39.79,15.89,65.47,24.92c0,0,31.59,29.71,65.47,132.62c0,0-31.05,52.22-90.09,68.96"/>
		<path class="st12" d="M329.4,403.24l28.53-23.82c0,0,15.09-11.47,30.78-3.62"/>
		<path class="st12" d="M328.29,321.12c0,0,23.6,34.76,29.63,58.3"/>
		<path class="st12" d="M167.09,387.38l-8.35-7.96c0,0-12.39-2.17-26.42,7.24"/>
		<path class="st12" d="M158.74,379.42c0,0,10.37-34.06,20.6-51.64"/>
		<path class="st12" d="M203.58,229.07c0,0-57.23,21.48-62.85,27.73c-5.61,6.25-26.94,126.37-27.5,140.12
			c-0.5,12.29,44.08,39.9,66.1,51.53"/>
		<path class="st14" d="M401.49,189.01h-59.56c-3.61,0-6.53-2.92-6.53-6.53v-38.53c0-3.61,2.92-6.53,6.53-6.53h59.56
			c3.61,0,6.53,2.92,6.53,6.53v38.53C408.02,186.08,405.09,189.01,401.49,189.01z"/>
		<polyline class="st12" points="358.83,152.93 344.86,161.7 357.82,173.19 		"/>
		<polyline class="st12" points="384.27,174.03 396.82,163.33 382.34,153.83 		"/>
		<line class="st12" x1="365.61" y1="180.61" x2="375.92" y2="148.28"/>
		<path class="st13" d="M246.38,269.65c0,2.08-1.69,3.76-3.76,3.76c-2.08,0-3.76-1.69-3.76-3.76c0-2.08,1.69-3.76,3.76-3.76
			C244.7,265.88,246.38,267.57,246.38,269.65z"/>
		<g>
			<path class="st13" d="M312.61,470.78H182.35c-1.69,0-3.05-1.37-3.05-3.05l0,0c0-1.69,1.37-3.05,3.05-3.05h130.26
				c1.69,0,3.05,1.37,3.05,3.05l0,0C315.66,469.42,314.3,470.78,312.61,470.78z"/>
			<path class="st14" d="M317.17,460.66l17.46-81.97c1.16-5.43-2.98-10.54-8.53-10.54H173.9c-5.5,0-9.62,5.02-8.56,10.41L181,457.8
				c0.79,4.01,4.27,6.94,8.36,7.03l119.08,2.73C312.63,467.66,316.3,464.76,317.17,460.66z"/>
			<path class="st13" d="M261.63,415.39c0,6.71-5.44,12.15-12.15,12.15c-6.71,0-12.15-5.44-12.15-12.15
				c0-6.71,5.44-12.15,12.15-12.15C256.19,403.24,261.63,408.68,261.63,415.39z"/>
			<line class="st12" x1="285.51" y1="375.93" x2="303.59" y2="375.93"/>
			<line class="st12" x1="199.16" y1="375.93" x2="267.8" y2="375.93"/>
		</g>
		<path class="st13" d="M157.72,463.32c7.75,3.36,15.9,6.1,23.9,8.78c15.6,5.22,33.01,8.44,49.48,10.02
			c1.16-0.1,2.41-0.03,3.75,0.27c14.76,3.3,32.66-0.45,47.63-1.78c14.73-1.31,29.54-3.44,42.73-9.81
			c12.52-6.05,23.87-7.64,35.92-15.15c5.18-3.22,11.64-6.62,16.32-10.2c3.34-2.55,6.02-5.32,9.22-7.8
			c-19.31-0.73-52.26,5.99-67.54,13.76c-0.19,6.34-3.48,13.28-3.48,13.28s-110.62,6.11-118.2,2.89c-7.58-3.22-16.47-9.76-16.47-9.76
			c-3.43-2.52-17.6-0.27-21.9-0.21c-4.08,0.06-8.17,0.17-12.26,0.37C150.46,459.69,153.98,461.69,157.72,463.32z"/>
		<path class="st15" d="M298.84,479.32c13.03-9.82,26.73-19.14,41.31-26.52"/>
		<path class="st15" d="M298.84,479.32"/>
		<line class="st12" x1="243.89" y1="157.57" x2="248.99" y2="157.57"/>
		<path class="st13" d="M246.38,290.99c0,2.08-1.69,3.76-3.76,3.76c-2.08,0-3.76-1.69-3.76-3.76c0-2.08,1.69-3.76,3.76-3.76
			C244.7,287.23,246.38,288.91,246.38,290.99z"/>
		<path class="st13" d="M246.38,312.34c0,2.08-1.69,3.76-3.76,3.76c-2.08,0-3.76-1.69-3.76-3.76c0-2.08,1.69-3.76,3.76-3.76
			C244.7,308.58,246.38,310.26,246.38,312.34z"/>
	</g>
	<g id="Capa_7">
		<path class="st16" d="M163.73,389.64c0-13.21,6.34-13.21,6.34-26.41c0-13.2-6.34-13.2-6.34-26.41c0-13.21,6.34-13.21,6.34-26.42
			c0-13.21-6.34-13.21-6.34-26.42"/>
		<path class="st16" d="M146.76,396.22c0-11.49,5.51-11.49,5.51-22.98c0-11.48-5.51-11.48-5.51-22.97c0-11.49,5.51-11.49,5.51-22.98
			s-5.51-11.49-5.51-22.98"/>
	</g>
	<g>
		<g>
			<path class="st13" d="M192.89,452.33h-27.17c-9.07,0-16.45-7.38-16.45-16.45v-16.69c0-9.07,7.38-16.45,16.45-16.45h27.17
				c9.07,0,16.45,7.38,16.45,16.45v16.69C209.34,444.95,201.96,452.33,192.89,452.33z M165.71,411.12c-4.45,0-8.07,3.62-8.07,8.07
				v16.69c0,4.45,3.62,8.07,8.07,8.07h27.17c4.45,0,8.07-3.62,8.07-8.07v-16.69c0-4.45-3.62-8.07-8.07-8.07H165.71z"/>
		</g>
		<path class="st13" d="M181.76,386.58h-52.97c-4.51,0-8.04,3.87-7.63,8.36l4.95,54.41c5.21,3.22,10.26,6.56,15.95,8.89
			c6.05,2.48,12.19,4.71,18.19,7.34c0.47,0.21,0.9,0.47,1.31,0.77c1.32,0.2,2.57,0.63,3.75,1.32c0.36,0.28,0.72,0.55,1.07,0.83h9.31
			c3.96,0,7.27-3.02,7.63-6.97l6.06-66.6C189.8,390.44,186.27,386.58,181.76,386.58z"/>
	</g>
	<path class="st13" d="M217.1,151.4c-0.65-0.56-1.51,0.2-1.04,0.93c1.95,3.03,5.27,6.65,10.1,6.96c4.81,0.31,8.12-3.06,10.06-6
		c0.45-0.68-0.42-1.53-1.06-1.04C231.42,155.12,224.78,158.02,217.1,151.4z"/>
	<path class="st13" d="M257.31,151.4c-0.65-0.56-1.51,0.2-1.04,0.93c1.95,3.03,5.27,6.65,10.1,6.96c4.81,0.31,8.12-3.06,10.06-6
		c0.45-0.68-0.42-1.53-1.06-1.04C271.63,155.12,264.99,158.02,257.31,151.4z"/>
	<path id="XMLID_4_" class="st13" d="M279.28,145.52c0,0-0.07-0.43-0.32-1.15c-0.13-0.35-0.28-0.8-0.5-1.26
		c-0.21-0.48-0.48-0.99-0.8-1.55c-0.32-0.55-0.69-1.12-1.11-1.69c-0.43-0.56-0.9-1.17-1.44-1.71c-0.51-0.58-1.1-1.09-1.7-1.6
		c-0.6-0.53-1.27-0.94-1.91-1.41c-0.67-0.39-1.35-0.78-2.04-1.13c-0.69-0.31-1.38-0.59-2.04-0.83c-0.69-0.2-1.35-0.37-1.97-0.52
		c-0.63-0.14-1.24-0.18-1.79-0.25c-0.55-0.05-1.06-0.11-1.52-0.07c-0.45,0.02-0.85,0.05-1.17,0.07c-0.64,0.05-1.01,0.12-1.01,0.12
		s0.35,0.2,0.94,0.47c0.3,0.14,0.66,0.31,1.07,0.48c0.41,0.15,0.86,0.39,1.36,0.63c0.49,0.24,1.03,0.44,1.58,0.73
		c0.55,0.28,1.13,0.57,1.73,0.86c0.59,0.32,1.18,0.67,1.81,0.99c0.6,0.36,1.2,0.73,1.81,1.1c0.3,0.2,0.59,0.4,0.89,0.6
		c0.3,0.2,0.6,0.38,0.88,0.6c0.28,0.22,0.57,0.42,0.85,0.62c0.29,0.2,0.54,0.43,0.81,0.64c0.54,0.41,1.04,0.85,1.53,1.26
		c0.25,0.2,0.46,0.43,0.69,0.62c0.23,0.21,0.45,0.39,0.65,0.6c0.41,0.39,0.79,0.75,1.11,1.08c0.34,0.33,0.61,0.64,0.86,0.89
		c0.22,0.26,0.42,0.45,0.54,0.59C279.21,145.44,279.28,145.52,279.28,145.52z"/>
	<path id="XMLID_3_" class="st13" d="M214.5,143.49c0,0,0.09-0.43,0.37-1.13c0.15-0.34,0.31-0.78,0.56-1.22
		c0.24-0.46,0.54-0.96,0.87-1.49c0.34-0.52,0.75-1.06,1.2-1.61c0.47-0.53,0.95-1.1,1.52-1.6c0.54-0.54,1.15-1.01,1.78-1.48
		c0.62-0.48,1.31-0.85,1.98-1.27c0.69-0.35,1.39-0.69,2.09-0.98c0.71-0.26,1.41-0.49,2.09-0.69c0.69-0.15,1.36-0.27,1.99-0.38
		c0.63-0.1,1.24-0.09,1.8-0.12c0.56-0.01,1.06-0.03,1.51,0.04c0.45,0.05,0.85,0.11,1.16,0.16c0.64,0.1,1,0.19,1,0.19
		s-0.35,0.17-0.96,0.4c-0.3,0.12-0.67,0.26-1.09,0.4c-0.42,0.13-0.88,0.33-1.39,0.53c-0.5,0.21-1.05,0.37-1.62,0.61
		c-0.57,0.25-1.15,0.5-1.77,0.73c-0.6,0.28-1.22,0.59-1.86,0.85c-0.62,0.32-1.24,0.64-1.87,0.97c-0.31,0.18-0.61,0.36-0.92,0.53
		c-0.3,0.18-0.61,0.33-0.91,0.54c-0.29,0.2-0.58,0.38-0.88,0.56c-0.3,0.17-0.57,0.4-0.84,0.58c-0.57,0.37-1.08,0.78-1.59,1.15
		c-0.26,0.17-0.48,0.39-0.72,0.57c-0.24,0.19-0.47,0.36-0.68,0.55c-0.42,0.36-0.82,0.69-1.17,1.01c-0.35,0.31-0.64,0.59-0.89,0.82
		c-0.24,0.24-0.45,0.42-0.57,0.56C214.57,143.42,214.5,143.49,214.5,143.49z"/>
	<g>
		<path class="st17" d="M246.36,69.18l-14.06,0.01c-1.16,0-2.11-0.95-2.11-2.1l0-4.78c0-1.16,0.95-2.11,2.1-2.11l14.06-0.01
			c1.16,0,2.11,0.95,2.11,2.1l0,4.78C248.46,68.23,247.51,69.18,246.36,69.18z"/>
		<path class="st18" d="M188.41,127.71l102.66-0.06l-0.01-13.08c-0.01-26.82-20.19-48.55-45.07-48.54l-12.56,0.01
			c-24.88,0.01-45.04,21.77-45.03,48.59L188.41,127.71z"/>
		<path class="st19" d="M249.42,94.71l-19.35,0.01c-4.71,0-8.52,3.82-8.52,8.53l0.01,16.85l36.4-0.02l-0.01-16.85
			C257.94,98.52,254.12,94.7,249.42,94.71z"/>
		<path class="st20" d="M222.22,112.08l35.86-0.02l0.01,12.98l-35.86,0.02c-3.33,0-6.02-2.9-6.03-6.49l0,0
			C216.2,114.99,218.89,112.08,222.22,112.08z"/>
		<path class="st21" d="M228.05,118.82c0,1.75-1.31,3.16-2.93,3.16c-1.62,0-2.93-1.41-2.93-3.16c0-1.75,1.31-3.16,2.93-3.16
			C226.73,115.66,228.05,117.07,228.05,118.82z"/>
		<path class="st18" d="M228.05,118.82c0,1.75-1.31,3.16-2.93,3.16c-1.62,0-2.93-1.41-2.93-3.16c0-1.75,1.31-3.16,2.93-3.16
			C226.73,115.66,228.05,117.07,228.05,118.82z"/>
		<ellipse class="st18" cx="237.14" cy="118.81" rx="2.93" ry="3.16"/>
		<path class="st18" d="M252.1,118.8c0,1.75-1.31,3.16-2.93,3.16c-1.62,0-2.93-1.41-2.93-3.16c0-1.75,1.31-3.16,2.93-3.16
			C250.78,115.64,252.1,117.06,252.1,118.8z"/>
	</g>
	<path class="st13" d="M258.08,112.06c0,0,8.77-5.7,8.1-15.19l-11.3,3.46l2.38-10.51l-10.03,11.12L258.08,112.06z"/>
</g>
<g id="Capa_12">
	<g>
		<ellipse class="st13" cx="248.16" cy="416.72" rx="20" ry="19.81"/>
		<g>
			<path class="st0" d="M231.9,419.76c-0.42-0.19-0.72-0.52-0.9-0.98c-0.18-0.46-0.17-0.95,0.02-1.45c0.19-0.5,0.58-0.88,1.17-1.13
				l8.48-3.4c0.28-0.12,0.57,0.01,0.89,0.37c0.31,0.37,0.47,0.76,0.49,1.17c0.01,0.42-0.18,0.74-0.58,0.98l-7.1,2.76l7.12,2.86
				c0.3,0.21,0.45,0.52,0.45,0.93c0,0.41-0.14,0.8-0.41,1.17c-0.27,0.37-0.54,0.49-0.82,0.38L231.9,419.76z"/>
			<path class="st0" d="M245.13,424.5c-0.24-0.19-0.36-0.45-0.36-0.77c0-0.17,0.09-0.57,0.28-1.21l4.7-13.61
				c0.29-1.02,0.71-1.53,1.26-1.53c0.32,0,0.59,0.1,0.81,0.29s0.33,0.48,0.33,0.85c0,0.26-0.08,0.63-0.25,1.13l-4.93,14.36
				c-0.16,0.52-0.5,0.77-1.03,0.77C245.64,424.79,245.37,424.69,245.13,424.5z"/>
			<path class="st0" d="M254.37,423.03c-0.27-0.37-0.41-0.76-0.41-1.17c0-0.41,0.15-0.72,0.45-0.93l7.12-2.86l-7.1-2.76
				c-0.4-0.24-0.59-0.56-0.58-0.98c0.01-0.42,0.18-0.81,0.49-1.17c0.31-0.36,0.6-0.49,0.89-0.37l8.48,3.4
				c0.44,0.19,0.78,0.46,1,0.82c0.22,0.35,0.33,0.71,0.32,1.06c-0.01,0.35-0.11,0.69-0.29,1.01c-0.18,0.32-0.43,0.55-0.75,0.69
				l-8.8,3.65C254.91,423.53,254.64,423.4,254.37,423.03z"/>
		</g>
	</g>
</g>
<g id="Capa_11">
	<path class="st22" d="M246.29,148.3c0,0,0.29,19.09,7.73,23.95c0,0,1.72,0.75,0.86,3.37c-0.86,2.62-7.44,4.12-12.03-0.37"/>
</g>
<g id="Capa_10">
	<path class="st23" d="M312.38,307.87l-12.47,6.54c-1.9,1-4.17,1-6.07,0l-12.47-6.54c-2.15-1.13-3.5-3.36-3.5-5.79v-25.06h38.02
		v25.06C315.88,304.51,314.53,306.74,312.38,307.87z"/>
	<rect x="277.86" y="277.01" class="st24" width="38.02" height="9.77"/>
</g>
<g id="Capa_9">
	<g class="st25">
		<g>
			<g>
				<path class="st26" d="M183.74,72.76c-4.16,0-8.63-1.37-11.92-5.54c-3.63-4.6-5.04-11.59-3.61-17.8
					c1.08-4.68,3.64-8.21,7.19-9.92l0,0c15.78-7.6,23.29,3.56,25.8,8.71c4.46,9.18-3.6,19.52-7.41,21.91
					C191.73,71.4,187.89,72.76,183.74,72.76z M177.09,43c-2.47,1.19-4.28,3.78-5.09,7.29c-1.16,5.03-0.01,10.87,2.87,14.52
					c2.14,2.71,5.12,4.08,8.88,4.08c0.04,0,0.08,0,0.12,0c3.17-0.02,6.23-1.06,7.85-2.08c1.53-0.96,3.87-3.6,5.38-6.8
					c1.24-2.62,2.35-6.5,0.59-10.12C194.68,43.68,188.65,37.43,177.09,43L177.09,43z"/>
			</g>
			<g>
				<path class="st26" d="M189.63,68.47c0,0,1.71,6.41,3.57,7.14c2.06,0.81,8.74-4.21,7.85-5.99c-0.89-1.78-5.17-6.06-5.17-6.06
					L189.63,68.47z"/>
			</g>
			<g>
				<path class="st26" d="M192.88,68.59c-0.64,0-1.27-0.32-1.64-0.9l-7.8-12.25c-0.58-0.91-0.31-2.11,0.6-2.68
					c0.91-0.58,2.11-0.31,2.68,0.6l7.8,12.25c0.58,0.91,0.31,2.11-0.6,2.68C193.6,68.49,193.24,68.59,192.88,68.59z"/>
			</g>
			<g>
				<path class="st26" d="M188.45,50.4c2.1,2.1,2.1,5.5,0,7.6c-2.1,2.1-5.5,2.1-7.6,0c-2.1-2.1-2.1-5.5,0-7.6
					C182.95,48.3,186.35,48.3,188.45,50.4z"/>
			</g>
		</g>
		<g>
			<path class="st26" d="M326.5,89.66c-1.1,0-2.2-0.14-3.3-0.43c-5.08-1.34-9.28-5.77-10.7-11.28c-1.26-4.91-0.18-10.43,2.9-14.75
				c3.03-4.26,7.65-6.85,13.01-7.3c5.87-0.48,10.17,3.81,11.38,8.31c1.25,4.64-0.66,8.92-4.86,10.92c-0.8,0.38-1.56,0.54-2.28,0.5
				c-0.3,1.97-1.17,3.78-3.15,4.65c-2.46,1.07-4.79,0.8-6.41-0.77c-2.43-2.35-2.45-6.74-1.21-9.86c1.29-3.27,3.88-5.25,6.93-5.29
				c0.01,0,0.02,0,0.03,0c1.18,0,2.15,0.95,2.16,2.13c0,0.16-0.01,0.32-0.04,0.47c0.38,0.22,0.69,0.56,0.88,0.99
				c0.26,0.59,0.49,1.16,0.7,1.7c0.19,0.5,0.44,1.13,0.64,1.53c3.26-1.63,2.68-4.86,2.42-5.83c-0.74-2.76-3.33-5.42-6.84-5.12
				c-5.21,0.43-8.23,3.22-9.84,5.49c-2.31,3.25-3.17,7.53-2.23,11.16c1.03,4.01,4.02,7.22,7.61,8.17c3.46,0.91,6.97-0.35,10.15-3.64
				c0.83-0.86,2.2-0.88,3.06-0.05c0.86,0.83,0.88,2.2,0.05,3.06C334.23,87.86,330.39,89.66,326.5,89.66z M327.7,68.97
				c-0.97,0.51-1.52,1.56-1.8,2.26c-0.81,2.06-0.57,4.42,0.19,5.16c0.31,0.29,0.87,0.27,1.67-0.08c0.99-0.43,0.84-4.14,0.02-6.87
				C327.74,69.28,327.71,69.12,327.7,68.97z"/>
		</g>
		<g>
			<g>
				<path class="st26" d="M429.73,238.32c-0.28-0.06-0.56-0.14-0.84-0.23c-4.7-1.52-8.71-6.96-7.27-14.43
					c1.14-5.88,4.28-10.56,8.4-12.52c2.82-1.34,5.89-1.28,8.64,0.19c1.03,0.55,1.42,1.84,0.87,2.87c-0.55,1.03-1.84,1.42-2.87,0.87
					c-1.58-0.84-3.2-0.88-4.82-0.1c-2.87,1.37-5.19,5.01-6.06,9.5c-0.98,5.05,1.48,8.64,4.4,9.59c2.49,0.8,4.77-0.4,6.07-3.22
					c0.49-1.06,1.75-1.53,2.81-1.04c1.06,0.49,1.53,1.75,1.04,2.81C438.39,236.34,434.56,239.42,429.73,238.32z"/>
			</g>
			<g>
				<path class="st26" d="M450.86,209.93c-0.39,0.1-0.78,0.21-1.17,0.32c-0.16,0.04-0.31,0.09-0.47,0.13
					c-0.18-0.55-0.36-1.1-0.54-1.64c-0.55-1.61-3.06-0.83-2.53,0.79c0.18,0.52,0.33,1.04,0.48,1.57c-0.71,0.2-1.42,0.39-2.13,0.59
					c-1.87,0.52-1.4,3.72,0.6,3.43c0.77-0.11,1.55-0.22,2.32-0.33c0.15,0.49,0.31,0.98,0.51,1.47c0.35,0.88,1.53,1.06,2.13,0.55
					c0.17-0.08,0.31-0.19,0.39-0.36c0.33-0.71,0.26-1.41,0.07-2.1c0.37-0.05,0.74-0.1,1.08-0.16
					C454.72,213.73,453.92,209.13,450.86,209.93z"/>
			</g>
			<g>
				<path class="st26" d="M463.64,207.5c-0.39,0.1-0.78,0.21-1.17,0.32c-0.16,0.04-0.31,0.09-0.47,0.13
					c-0.18-0.55-0.36-1.1-0.54-1.64c-0.55-1.61-3.06-0.83-2.53,0.79c0.18,0.52,0.33,1.04,0.48,1.57c-0.71,0.2-1.42,0.39-2.13,0.59
					c-1.87,0.52-1.4,3.72,0.6,3.43c0.77-0.11,1.55-0.22,2.32-0.33c0.15,0.49,0.31,0.98,0.51,1.47c0.35,0.88,1.53,1.06,2.13,0.55
					c0.17-0.08,0.32-0.19,0.39-0.36c0.33-0.71,0.26-1.41,0.07-2.1c0.37-0.05,0.74-0.1,1.08-0.16
					C467.49,211.3,466.7,206.7,463.64,207.5z"/>
			</g>
		</g>
		<g>
			<g>
				<path class="st26" d="M366.95,407.34c-0.24,0-0.49-0.06-0.72-0.18c-0.77-0.42-1.07-1.41-0.67-2.22l10.25-20.83
					c0.4-0.81,1.34-1.12,2.11-0.71c0.77,0.42,1.07,1.41,0.67,2.22l-10.25,20.83C368.06,407.02,367.52,407.34,366.95,407.34z"/>
			</g>
			<g>
				<path class="st26" d="M361.48,403.03c-0.56,0-1.11-0.32-1.39-0.88l-5.81-11.67c-0.39-0.78-0.13-1.73,0.59-2.18l10.94-6.83
					c0.74-0.46,1.7-0.21,2.14,0.57c0.44,0.78,0.2,1.79-0.55,2.25l-9.66,6.03l5.12,10.29c0.4,0.81,0.1,1.8-0.66,2.22
					C361.98,402.97,361.73,403.03,361.48,403.03z"/>
			</g>
			<g>
				<path class="st26" d="M375.67,408.78c-0.61,0-1.19-0.38-1.44-1.01c-0.33-0.84,0.04-1.8,0.84-2.15l11.28-4.97l-4.12-12.18
					c-0.29-0.86,0.14-1.8,0.95-2.1c0.81-0.31,1.71,0.14,2,1l4.61,13.65c0.28,0.82-0.1,1.73-0.87,2.07l-12.64,5.57
					C376.07,408.74,375.87,408.78,375.67,408.78z"/>
			</g>
		</g>
		<g>
			<path class="st26" d="M221.13,338.49c-1.06-1.84-2.37-3.55-3.88-5.07c-1.18,1.02-2.36,2.04-3.53,3.06
				c-1.72-1.05-4-1.75-6.46-1.69c-0.07-1.51-0.27-3.01-0.63-4.48c-2.72-0.04-5.45,0.92-7.51,2.64c0.48,1.12,1.14,2.17,1.96,3.09
				c0.13,0.14,0.26,0.29,0.39,0.43c-0.09,0.05-0.18,0.1-0.27,0.16c-3.3,2.07-4.93,4.29-5.6,6.44c-1-0.17-2-0.35-3-0.5
				c-0.23-0.04-0.48-0.07-0.7,0.01c-0.22,0.08-0.38,0.27-0.49,0.47c-0.37,0.7-0.21,1.54-0.03,2.31c0.25,1.08,0.49,2.16,0.74,3.24
				c0.13,0.57,0.35,1.25,0.93,1.41c0.43,0.12,0.87-0.09,1.27-0.29c0.48-0.24,0.98-0.47,1.47-0.69c0.23,0.72,0.5,1.39,0.78,1.99
				c0.73,1.62,2.17,3.6,4.23,4.99c-0.84,0.68-1.69,1.36-2.53,2.03c0.6,0.3,1.2,0.61,1.81,0.91c1.99,1,4.09,2.03,6.34,1.99
				c0.39-1.07,0.69-2.17,0.89-3.29c1.15-0.12,2.38-0.43,3.68-1.01c1.8-0.79,3.15-1.98,4.14-3.38c0.77,0.45,1.49,0.98,2.13,1.59
				c0.08,0.08,0.18,0.16,0.29,0.14c0.1-0.02,0.16-0.11,0.21-0.19c0.48-0.78,0.97-1.55,1.45-2.33c0.8-1.28,1.24-2.34,1.62-3.79
				c-1.19-0.3-2.3-0.7-3.5-1.08c0.39-2.43,0.23-4.83-0.18-6.59c1.39-0.55,2.71-1.26,3.92-2.12c0.06-0.04,0.12-0.08,0.14-0.15
				C221.24,338.69,221.19,338.58,221.13,338.49z M208.39,350.82c-3.36,1.48-5.61-0.88-6.33-2.47c-0.72-1.58-1.43-4.15,2.04-6.32
				c2.84-1.78,6.02-0.3,6.73,1.18C211.56,344.7,211.76,349.34,208.39,350.82z"/>
			<path class="st26" d="M241.19,346.73c-0.55-0.95-1.22-1.83-2-2.61c-0.61,0.52-1.21,1.05-1.82,1.57c-0.89-0.54-2.06-0.9-3.32-0.87
				c-0.03-0.77-0.14-1.55-0.32-2.3c-1.4-0.02-2.8,0.47-3.86,1.36c0.25,0.58,0.59,1.11,1.01,1.59c0.06,0.07,0.13,0.15,0.2,0.22
				c-0.05,0.03-0.09,0.05-0.14,0.08c-1.7,1.06-2.54,2.21-2.88,3.31c-0.51-0.09-1.03-0.18-1.55-0.26c-0.12-0.02-0.25-0.04-0.36,0.01
				c-0.11,0.04-0.2,0.14-0.25,0.24c-0.19,0.36-0.11,0.79-0.02,1.19c0.13,0.56,0.25,1.11,0.38,1.67c0.07,0.3,0.18,0.64,0.48,0.73
				c0.22,0.06,0.45-0.05,0.65-0.15c0.25-0.13,0.5-0.24,0.76-0.35c0.12,0.37,0.26,0.71,0.4,1.03c0.38,0.83,1.12,1.85,2.18,2.57
				c-0.43,0.35-0.87,0.7-1.3,1.05c0.31,0.16,0.62,0.31,0.93,0.47c1.03,0.52,2.11,1.04,3.26,1.03c0.2-0.55,0.36-1.12,0.46-1.69
				c0.59-0.06,1.22-0.22,1.89-0.52c0.93-0.41,1.62-1.02,2.13-1.74c0.4,0.23,0.77,0.51,1.1,0.82c0.04,0.04,0.09,0.08,0.15,0.07
				c0.05-0.01,0.08-0.05,0.11-0.1c0.25-0.4,0.5-0.8,0.75-1.2c0.41-0.66,0.64-1.2,0.83-1.95c-0.61-0.16-1.18-0.36-1.8-0.56
				c0.2-1.25,0.12-2.48-0.09-3.39c0.71-0.28,1.39-0.65,2.02-1.09c0.03-0.02,0.06-0.04,0.07-0.08
				C241.25,346.83,241.22,346.78,241.19,346.73z M234.64,353.07c-1.73,0.76-2.89-0.45-3.25-1.27c-0.37-0.81-0.73-2.14,1.05-3.25
				c1.46-0.92,3.1-0.15,3.46,0.61C236.26,349.92,236.37,352.31,234.64,353.07z"/>
		</g>
		<g>
			<path class="st26" d="M427.26,288.63c-1.21-2.17-2.71-4.19-4.43-5.99c-1.35,1.2-2.69,2.4-4.04,3.61c-1.97-1.23-4.57-2.07-7.37-2
				c-0.07-1.78-0.31-3.55-0.72-5.28c-3.11-0.04-6.22,1.09-8.57,3.12c0.55,1.32,1.31,2.56,2.23,3.65c0.14,0.17,0.29,0.34,0.44,0.51
				c-0.1,0.06-0.2,0.12-0.31,0.19c-3.77,2.44-5.63,5.06-6.4,7.6c-1.14-0.2-2.28-0.41-3.43-0.59c-0.27-0.04-0.55-0.08-0.8,0.02
				c-0.25,0.1-0.44,0.32-0.56,0.56c-0.43,0.82-0.24,1.82-0.04,2.73c0.28,1.28,0.56,2.55,0.84,3.83c0.15,0.68,0.4,1.47,1.07,1.67
				c0.49,0.14,1-0.11,1.45-0.35c0.55-0.29,1.12-0.55,1.68-0.81c0.26,0.85,0.57,1.64,0.89,2.35c0.84,1.91,2.48,4.25,4.83,5.89
				c-0.96,0.8-1.93,1.6-2.89,2.4c0.69,0.36,1.37,0.71,2.06,1.07c2.28,1.18,4.67,2.4,7.24,2.35c0.45-1.26,0.79-2.56,1.02-3.88
				c1.32-0.14,2.72-0.51,4.21-1.19c2.06-0.93,3.6-2.34,4.73-3.99c0.88,0.53,1.7,1.16,2.44,1.88c0.09,0.09,0.21,0.19,0.33,0.17
				c0.11-0.02,0.18-0.12,0.24-0.22c0.55-0.92,1.1-1.83,1.65-2.75c0.91-1.51,1.41-2.76,1.85-4.47c-1.36-0.36-2.63-0.82-4-1.28
				c0.45-2.87,0.27-5.69-0.21-7.77c1.58-0.65,3.09-1.49,4.48-2.5c0.07-0.05,0.13-0.1,0.16-0.18
				C427.38,288.87,427.32,288.74,427.26,288.63z M412.7,303.18c-3.84,1.75-6.41-1.04-7.22-2.91c-0.82-1.87-1.63-4.9,2.33-7.46
				c3.24-2.1,6.87-0.35,7.69,1.4C416.32,295.96,416.55,301.43,412.7,303.18z"/>
			<path class="st26" d="M450.16,298.36c-0.62-1.12-1.39-2.16-2.28-3.08c-0.69,0.62-1.38,1.24-2.08,1.86
				c-1.01-0.63-2.35-1.07-3.79-1.03c-0.04-0.91-0.16-1.83-0.37-2.72c-1.6-0.02-3.2,0.56-4.41,1.6c0.28,0.68,0.67,1.31,1.15,1.88
				c0.07,0.09,0.15,0.17,0.23,0.26c-0.05,0.03-0.11,0.06-0.16,0.1c-1.94,1.25-2.9,2.6-3.29,3.91c-0.59-0.1-1.17-0.21-1.76-0.3
				c-0.14-0.02-0.28-0.04-0.41,0.01c-0.13,0.05-0.22,0.16-0.29,0.29c-0.22,0.42-0.12,0.94-0.02,1.4c0.14,0.66,0.29,1.31,0.43,1.97
				c0.08,0.35,0.21,0.76,0.55,0.86c0.25,0.07,0.51-0.06,0.74-0.18c0.28-0.15,0.57-0.28,0.86-0.42c0.13,0.44,0.29,0.84,0.46,1.21
				c0.43,0.98,1.28,2.19,2.49,3.03c-0.5,0.41-0.99,0.82-1.49,1.23c0.35,0.18,0.71,0.37,1.06,0.55c1.17,0.61,2.4,1.23,3.72,1.21
				c0.23-0.65,0.41-1.32,0.52-1.99c0.68-0.07,1.4-0.26,2.16-0.61c1.06-0.48,1.85-1.2,2.43-2.05c0.45,0.27,0.88,0.6,1.25,0.97
				c0.05,0.05,0.11,0.1,0.17,0.09c0.06-0.01,0.09-0.06,0.12-0.11c0.28-0.47,0.57-0.94,0.85-1.41c0.47-0.78,0.73-1.42,0.95-2.3
				c-0.7-0.18-1.35-0.42-2.06-0.66c0.23-1.47,0.14-2.93-0.11-4c0.82-0.33,1.59-0.76,2.3-1.28c0.03-0.02,0.07-0.05,0.08-0.09
				C450.22,298.48,450.19,298.41,450.16,298.36z M442.67,305.84c-1.98,0.9-3.3-0.54-3.72-1.5c-0.42-0.96-0.84-2.52,1.2-3.84
				c1.67-1.08,3.53-0.18,3.96,0.72C444.53,302.13,444.65,304.94,442.67,305.84z"/>
		</g>
		<g>
			<g>
				<g>
					<path class="st26" d="M302.78,218.74c-0.23,0-0.45-0.01-0.69-0.03c-3.9-0.34-7.95-3.84-8.16-9.86
						c-0.16-4.74,1.44-8.91,4.28-11.16c1.94-1.54,4.33-2.02,6.71-1.38c0.9,0.24,1.42,1.17,1.18,2.06c-0.24,0.9-1.17,1.42-2.06,1.18
						c-1.36-0.37-2.62-0.11-3.74,0.77c-1.97,1.56-3.13,4.78-3.01,8.41c0.14,4.07,2.66,6.41,5.09,6.63c2.07,0.18,3.61-1.15,4.12-3.56
						c0.19-0.91,1.08-1.49,1.99-1.3c0.91,0.19,1.49,1.08,1.3,1.99C309.12,215.68,306.71,218.74,302.78,218.74z"/>
				</g>
				<g>
					<path class="st26" d="M314.52,196.93c-1.77-0.31-3.29,1.13-2.98,2.93c0.28,1.64,2.37,2.4,3.76,1.67
						c0.24-0.12,0.45-0.31,0.62-0.52c0.32-0.23,0.57-0.55,0.7-0.95C317.07,198.65,315.89,197.16,314.52,196.93z"/>
				</g>
				<g>
					<g>
						<polygon class="st26" points="316.35,207.72 316.35,207.72 316.34,207.72 						"/>
					</g>
					<g>
						<path class="st26" d="M318.77,207.78c-0.09-0.27-0.23-0.5-0.41-0.69c-0.33-0.73-1.02-1.24-1.82-1.35
							c-0.9-0.12-1.81,0.26-2.28,1.06c-0.43,0.72-0.47,1.59-0.14,2.35c0.45,1.06,1.53,1.61,2.65,1.46
							C317.97,210.46,319.19,209.04,318.77,207.78z"/>
					</g>
				</g>
			</g>
			<g>
				<path class="st26" d="M325.56,213.1c-0.86,0-1.59-0.65-1.67-1.53l-2.14-23.23c-0.09-0.92,0.59-1.74,1.52-1.83
					c0.93-0.09,1.74,0.59,1.83,1.52l2.14,23.23c0.09,0.92-0.59,1.74-1.52,1.83C325.67,213.1,325.61,213.1,325.56,213.1z"/>
			</g>
		</g>
	</g>
	<g>
		<path class="st27" d="M258.15,187.98c-1.74,6.14-9.93,9.98-18.3,8.58c-8.37-1.4-13.74-7.51-12-13.65l0.03,0
			c0.3-1.06,1.72-1.72,3.16-1.48l25.01,4.18c1.44,0.24,2.37,1.3,2.07,2.36L258.15,187.98z"/>
		<path class="st28" d="M249.6,194.27c-2.74,0.65-5.97,0.84-9.23,0.42c-2.67-0.34-5-1.04-6.83-1.97c1.63-1.28,5.14-1.94,8.88-1.53
			C245.99,191.58,248.74,192.83,249.6,194.27z"/>
		<path class="st29" d="M234.03,183.79l17.92,3.05c-0.16,1.22-1.52,2.25-2.96,2.28c-1.74,0.04-14.63-2.37-15.32-3.13
			C233.35,185.62,233.64,184.67,234.03,183.79z"/>
	</g>
</g>
</svg>
